name C:\Users\u0101727\Documents\MyRepositories\paper-ad\trackingsimulations_3d\Results\TrackSim\IK_c13.mot
datacolumns 32
datarows 17
range 3.45000000 3.70600000
endheader
time	pelvis_tilt	pelvis_list	pelvis_rotation	pelvis_tx	pelvis_ty	pelvis_tz	hip_flexion_l	hip_adduction_l	hip_rotation_l	hip_flexion_r	hip_adduction_r	hip_rotation_r	knee_angle_l	knee_angle_r	ankle_angle_l	ankle_angle_r	subtalar_angle_l	subtalar_angle_r	lumbar_extension	lumbar_bending	lumbar_rotation	arm_flex_l	arm_add_l	arm_rot_l	arm_flex_r	arm_add_r	arm_rot_r	elbow_flex_l	elbow_flex_r	pro_sup_l	pro_sup_r	
          3.45000000	         -2.16356022	          4.32771613	          4.29888259	         -0.50461308	          0.94021984	         -0.22944265	         14.60225597	          8.69060769	          3.56976841	         13.47831817	         -1.74059778	         -2.17934511	        -21.20413092	        -65.49750188	          3.75114537	        -12.68084212	          5.12877258	        -13.56620339	         -4.41206278	         -4.08174082	         -3.26426570	         -1.90313078	        -15.77738613	         17.86801090	         -4.84609832	        -16.88026769	         12.16905458	         21.21142162	         23.50360298	         86.51662706	         86.51662706	
          3.46600000	         -2.18449012	          4.29672380	          4.42449158	         -0.48706474	          0.94426589	         -0.23064972	         13.83316686	          8.92556770	          3.39023669	         16.66466269	         -2.03810797	         -2.08138955	        -22.57146214	        -66.58778812	          5.90999650	        -11.07061129	          6.44289320	        -12.87464030	         -4.70995244	         -4.06289673	         -3.91776501	         -1.59373730	        -15.90533435	         17.29569145	         -4.99433671	        -16.82068533	         12.38808288	         22.57140329	         23.06635644	         86.51662706	         86.51662706	
          3.48200000	         -2.16591922	          3.92500630	          4.36080395	         -0.46888287	          0.94717298	         -0.23125123	         12.35039341	          8.57997555	          3.94305663	         19.60020085	         -1.91569968	         -1.95227154	        -22.33956294	        -66.83389498	          7.50092074	         -8.76905966	          6.27350149	        -11.84643663	         -4.90015215	         -3.68790971	         -4.35743538	         -1.39961900	        -16.06290749	         16.78644257	         -5.26764085	        -16.78230883	         12.42955281	         23.96062204	         22.62703068	         86.51662706	         86.51662706	
          3.49800000	         -2.11650941	          3.53993584	          4.37826367	         -0.45056325	          0.94972252	         -0.23189969	         10.76420423	          8.21362166	          4.50761584	         22.23025272	         -1.81958402	         -2.00470661	        -21.91371895	        -66.12561447	          8.63288691	         -7.14466124	          5.97786607	        -10.90576137	         -5.09167828	         -3.27741190	         -4.85569647	         -1.18755059	        -16.22339626	         16.38227008	         -5.63485325	        -16.74257759	         12.19263874	         25.27180918	         22.32089682	         86.51662706	         86.51662706	
          3.51400000	         -2.03905526	          3.12746272	          4.46372079	         -0.43208566	          0.95179223	         -0.23255871	          9.09745782	          7.79894141	          5.06918786	         24.50785451	         -1.72617386	         -2.21721493	        -21.33583273	        -64.49362370	          9.37762063	         -5.53236931	          5.61382788	        -10.22711186	         -5.28361506	         -2.81925064	         -5.38862614	         -0.95951481	        -16.39327278	         16.07860373	         -6.06953773	        -16.69906532	         11.70042821	         26.51804795	         22.10817116	         86.51662706	         86.51662706	
          3.53000000	         -1.94171143	          2.70871748	          4.58303790	         -0.41343512	          0.95329539	         -0.23314526	          7.36949385	          7.33399458	          5.56408351	         26.42244900	         -1.63765772	         -2.53117080	        -20.64638971	        -61.98367207	          9.88348978	         -3.86409734	          5.29807854	         -9.94342824	         -5.47174136	         -2.34754964	         -5.92201745	         -0.72558923	        -16.58453568	         15.84888710	         -6.52927392	        -16.64053139	         11.04713871	         27.71030024	         21.92319363	         86.51662706	         86.51662706	
          3.54600000	         -1.82779783	          2.31607743	          4.71422932	         -0.39458548	          0.95418150	         -0.23361541	          5.58574831	          6.83671156	          5.93614458	         27.95993871	         -1.57305209	         -2.89934270	        -19.87730466	        -58.67478194	         10.29672770	         -2.17637664	          5.13443158	        -10.03311694	         -5.65734457	         -1.90479014	         -6.43773314	         -0.49427095	        -16.80056241	         15.67266817	         -6.97821116	        -16.55959608	         10.33201568	         28.84101563	         21.71125058	         86.51662706	         86.51662706	
          3.56200000	         -1.69962723	          1.98409520	          4.85383440	         -0.37551900	          0.95444315	         -0.23398156	          3.74789164	          6.34605768	          6.18856907	         29.11985747	         -1.56840867	         -3.30352289	        -19.04891398	        -54.67107778	         10.68582971	         -1.00544722	          5.14849388	        -10.32592102	         -5.84443699	         -1.52984500	         -6.93702110	         -0.26721888	        -17.03475749	         15.54302980	         -7.39052215	        -16.45368820	          9.63268692	         29.88313248	         21.43825921	         86.51662706	         86.51662706	
          3.57800000	         -1.56042468	          1.73232675	          5.00475610	         -0.35623349	          0.95410603	         -0.23427671	          1.86520606	          5.89554823	          6.36105789	         29.92005548	         -1.64811391	         -3.74426450	        -18.18364638	        -50.08072960	         11.06109756	         -0.74458239	          5.30501323	        -10.38378484	         -6.03568839	         -1.24166626	         -7.42087034	         -0.03770445	        -17.27208033	         15.46371235	         -7.75038939	        -16.32576733	          9.00425809	         30.80149126	         21.08672408	         86.51662706	         86.51662706	
          3.59400000	         -1.42055401	          1.57130603	          5.16513147	         -0.33673453	          0.95320206	         -0.23451879	         -0.03610933	          5.51426179	          6.51746750	         30.40043667	         -1.81440612	         -4.23904170	        -17.31552397	        -45.02994344	         11.40355032	         -1.15828066	          5.52667933	        -10.06528338	         -6.22431707	         -1.05046928	         -7.87855647	          0.20533311	        -17.49499117	         15.44246303	         -8.04995907	        -16.18014548	          8.48753615	         31.55796881	         20.64634890	         86.51662706	         86.51662706	
          3.61000000	         -1.29150128	          1.49395341	          5.32917769	         -0.31702299	          0.95177473	         -0.23470209	         -1.92132139	          5.20903356	          6.71748208	         30.61325334	         -2.04027859	         -4.80268720	        -16.48875029	        -39.64469338	         11.69596779	         -1.56927632	          5.74095612	         -9.30469761	         -6.39864656	         -0.94838846	         -8.28848835	          0.47395322	        -17.68522359	         15.48913883	         -8.28764890	        -16.02224185	          8.11211084	         32.11855228	         20.10756684	         86.51662706	         86.51662706	
          3.62600000	         -1.17991187	          1.48667874	          5.50816920	         -0.29708615	          0.94989671	         -0.23483759	         -3.75789272	          4.97314598	          7.00351665	         30.59887282	         -2.31137751	         -5.48943214	        -15.75028730	        -34.01754808	         11.91968174	         -1.36132628	          5.89832294	         -8.01957334	         -6.54920329	         -0.91916674	         -8.64302192	          0.77769205	        -17.82741431	         15.61552701	         -8.46830038	        -15.85638898	          7.90023112	         32.45689228	         19.46259248	         86.51662706	         86.51662706	
          3.64200000	         -1.08840158	          1.53185781	          5.71303751	         -0.27689970	          0.94766262	         -0.23492562	         -5.51932857	          4.78647026	          7.36228626	         30.40849610	         -2.61763454	         -6.35980152	        -15.14088102	        -28.29655450	         12.06223991	         -0.76165588	          5.99939857	         -6.17913267	         -6.66870644	         -0.94208357	         -8.94368836	          1.11488268	        -17.91325037	         15.83135518	         -8.59693787	        -15.68524307	          7.86641403	         32.55925731	         18.71139501	         86.51662706	         86.51662706	
          3.65800000	         -1.01009146	          1.60719935	          5.93295160	         -0.25640853	          0.94516884	         -0.23491323	         -7.19416766	          4.61601352	          7.72071326	         30.10560925	         -2.91948309	         -7.42194077	        -14.69348792	        -22.77696676	         12.12506275	         -0.12942382	          6.09869696	         -3.95342883	         -6.75663567	         -0.99422221	         -9.18281268	          1.46782766	        -17.94320298	         16.13639985	         -8.67906349	        -15.50999724	          8.01610520	         32.42964657	         17.86487140	         86.51662706	         86.51662706	
          3.67400000	         -0.93392731	          1.69168934	          6.14762374	         -0.23554975	          0.94250329	         -0.23473011	         -8.76989855	          4.43298406	          8.00990442	         29.77971553	         -3.16915616	         -8.61499848	        -14.45120525	        -17.92753736	         12.11165366	          0.40095525	          6.25671420	         -1.63022592	         -6.81675057	         -1.05480495	         -9.35225785	          1.80742800	        -17.92400243	         16.51781764	         -8.72011994	        -15.33237338	          8.34631645	         32.09237267	         16.94668406	         86.51662706	         86.51662706	
          3.69000000	         -0.85086590	          1.76470086	          6.36436916	         -0.21427634	          0.93976011	         -0.23436467	        -10.21937212	          4.20808025	          8.16125227	         29.50592188	         -3.34114711	         -9.84880319	        -14.47471360	        -14.17830435	         12.02435767	          0.95464173	          6.55193702	          0.47781411	         -6.85182670	         -1.09814613	         -9.47876975	          2.09679279	        -17.86337934	         16.95223988	         -8.72582293	        -15.15754310	          8.84089580	         31.58773708	         15.99596354	         86.51662706	         86.51662706	
          3.70600000	         -0.75263098	          1.82413594	          6.62161165	         -0.19252474	          0.93703596	         -0.23388239	        -11.52078814	          3.93147030	          8.16724623	         29.29133723	         -3.44653846	        -10.99470871	        -14.81443947	        -11.70808887	         11.83917492	          1.50467029	          7.01786278	          1.89984309	         -6.86119001	         -1.11370464	         -9.62208382	          2.29318764	        -17.76772811	         17.40582068	         -8.71179266	        -14.99229388	          9.47153018	         30.96079447	         15.06264809	         86.51662706	         86.51662706	
